<svg width="40" height="40" viewBox="0 0 40 40" fill="none" xmlns="http://www.w3.org/2000/svg">
<path d="M15.1934 22.132C24.2528 22.132 24.2528 10.9409 24.2528 10.9409C24.2528 10.9409 24.2528 22.132 33.3122 22.132C24.2528 22.132 24.2528 33.323 24.2528 33.323C24.2528 33.323 24.2528 22.132 15.1934 22.132Z" fill="url(#paint0_linear_15_663)"/>
<path d="M6.66675 11.4737C11.4629 11.4737 11.4629 6.67749 11.4629 6.67749C11.4629 6.67749 11.4629 11.4737 16.2591 11.4737C11.4629 11.4737 11.4629 16.2698 11.4629 16.2698C11.4629 16.2698 11.4629 11.4737 6.66675 11.4737Z" fill="url(#paint1_linear_15_663)"/>
<path d="M10.93 29.0596H10.9513M33.3121 6.67749H33.3334M33.3121 33.3228H33.3334M24.2527 10.9407C24.2527 10.9407 24.2527 22.1318 15.1933 22.1318C24.2527 22.1318 24.2527 33.3228 24.2527 33.3228C24.2527 33.3228 24.2527 22.1318 33.3121 22.1318C24.2527 22.1318 24.2527 10.9407 24.2527 10.9407ZM11.4629 6.67749C11.4629 6.67749 11.4629 11.4737 6.66675 11.4737C11.4629 11.4737 11.4629 16.2698 11.4629 16.2698C11.4629 16.2698 11.4629 11.4737 16.2591 11.4737C11.4629 11.4737 11.4629 6.67749 11.4629 6.67749Z" stroke="url(#paint2_linear_15_663)" stroke-width="3.19744" stroke-linecap="round" stroke-linejoin="round"/>
<defs>
<linearGradient id="paint0_linear_15_663" x1="15.1934" y1="10.9409" x2="33.3132" y2="10.9417" gradientUnits="userSpaceOnUse">
<stop offset="0.0001" stop-color="#E59CFF"/>
<stop offset="0.5001" stop-color="#BA9CFF"/>
<stop offset="1" stop-color="#9CB2FF"/>
</linearGradient>
<linearGradient id="paint1_linear_15_663" x1="6.66675" y1="6.67749" x2="16.2596" y2="6.67801" gradientUnits="userSpaceOnUse">
<stop offset="0.0001" stop-color="#E59CFF"/>
<stop offset="0.5001" stop-color="#BA9CFF"/>
<stop offset="1" stop-color="#9CB2FF"/>
</linearGradient>
<linearGradient id="paint2_linear_15_663" x1="6.66675" y1="6.67749" x2="33.3349" y2="6.67893" gradientUnits="userSpaceOnUse">
<stop offset="0.0001" stop-color="#E59CFF"/>
<stop offset="0.5001" stop-color="#BA9CFF"/>
<stop offset="1" stop-color="#9CB2FF"/>
</linearGradient>
</defs>
</svg>
