<svg width="40" height="40" viewBox="0 0 40 40" fill="none" xmlns="http://www.w3.org/2000/svg">
<path fill-rule="evenodd" clip-rule="evenodd" d="M38.124 10.1628C38.4806 9.66156 38.3707 8.95775 37.8773 8.59401L36.397 7.50427C36.159 7.32905 35.8679 7.25882 35.5768 7.30614C35.2828 7.35345 35.0266 7.5124 34.8548 7.75416L34.2071 8.66276L37.4734 11.0714L38.124 10.1628ZM24.4294 25.2469L24.9454 20.224C24.9534 20.1449 24.9818 20.0717 25.0262 20.0096L31.8069 10.5118C31.1803 9.50779 30.0988 8.89343 28.9235 8.89343H8.41545C6.53197 8.89343 5 10.4497 5 12.3622V25.4502C5 27.3635 6.53197 28.9197 8.41545 28.9197H11.7851C12.0259 28.9197 12.2217 29.1186 12.2217 29.3633V34.3751L17.5476 29.0476C17.6291 28.9656 17.739 28.9205 17.854 28.9205H28.9235C30.8069 28.9205 32.3389 27.3642 32.3389 25.4509V19.5601L29.5537 23.3535L29.553 23.3528C29.513 23.4075 29.4613 23.4533 29.3994 23.4844L25.0597 25.6897C24.9978 25.7208 24.9309 25.737 24.8639 25.737C24.7766 25.737 24.69 25.7104 24.6157 25.6579C24.4847 25.5655 24.4134 25.408 24.4294 25.2469ZM9.71744 22.4486H21.6864C21.9273 22.4486 22.1231 22.6475 22.1231 22.8922C22.1231 23.1376 21.9273 23.3358 21.6864 23.3358H9.71744C9.47582 23.3358 9.28078 23.1376 9.28078 22.8922C9.28078 22.6467 9.47582 22.4486 9.71744 22.4486ZM22.805 18.8918H9.71744C9.47582 18.8918 9.28078 18.6929 9.28078 18.4482C9.28078 18.2028 9.47582 18.0046 9.71744 18.0046H22.805C23.0459 18.0046 23.2417 18.2028 23.2417 18.4482C23.2417 18.6937 23.0459 18.8918 22.805 18.8918ZM26.2758 14.4471H9.71744C9.47582 14.4471 9.28078 14.249 9.28078 14.0035C9.28078 13.7588 9.47582 13.5599 9.71744 13.5599H26.2758C26.5174 13.5599 26.7125 13.7588 26.7125 14.0035C26.7125 14.249 26.5174 14.4471 26.2758 14.4471ZM28.3652 23.0179L25.3806 24.5342L25.7358 21.0801L28.3652 23.0179ZM36.9559 11.7863L29.1112 22.4715L25.9898 20.1715L33.6926 9.38137L36.9559 11.7863ZM34.4211 11.8558C34.6176 11.9992 34.6591 12.2765 34.5164 12.4754L29.708 19.2119C29.6228 19.3317 29.4889 19.3953 29.3543 19.3953C29.2655 19.3953 29.1753 19.3679 29.0981 19.311C28.9031 19.1668 28.8594 18.8896 29.0013 18.6914L33.8112 11.9549C33.9517 11.756 34.2246 11.7117 34.4211 11.8558Z" fill="url(#paint0_linear_15_669)"/>
<defs>
<linearGradient id="paint0_linear_15_669" x1="5" y1="7.29175" x2="38.3351" y2="7.29396" gradientUnits="userSpaceOnUse">
<stop offset="0.0001" stop-color="#E59CFF"/>
<stop offset="0.5001" stop-color="#BA9CFF"/>
<stop offset="1" stop-color="#9CB2FF"/>
</linearGradient>
</defs>
</svg>
