<svg width="25" height="24" viewBox="0 0 25 24" fill="none" xmlns="http://www.w3.org/2000/svg">
  <path d="M12.7499 2.3999C7.4507 2.3999 3.1499 6.7007 3.1499 11.9999C3.1499 17.2991 7.4507 21.5999 12.7499 21.5999C18.0491 21.5999 22.3499 17.2991 22.3499 11.9999C22.3499 6.7007 18.0491 2.3999 12.7499 2.3999ZM17.2043 8.9279C17.0603 10.4447 16.4363 14.1311 16.1195 15.8303C15.9851 16.5503 15.7163 16.7903 15.4667 16.8191C14.9099 16.8671 14.4875 16.4543 13.9499 16.0991C13.1051 15.5423 12.6251 15.1967 11.8091 14.6591C10.8587 14.0351 11.4731 13.6895 12.0203 13.1327C12.1643 12.9887 14.6219 10.7519 14.6699 10.5503C14.6766 10.5198 14.6757 10.4881 14.6673 10.458C14.659 10.4278 14.6434 10.4002 14.6219 10.3775C14.5643 10.3295 14.4875 10.3487 14.4203 10.3583C14.3339 10.3775 12.9899 11.2703 10.3691 13.0367C9.9851 13.2959 9.6395 13.4303 9.3323 13.4207C8.9867 13.4111 8.3339 13.2287 7.8443 13.0655C7.2395 12.8735 6.7691 12.7679 6.8075 12.4319C6.8267 12.2591 7.0667 12.0863 7.5179 11.9039C10.3211 10.6847 12.1835 9.8783 13.1147 9.4943C15.7835 8.3807 16.3307 8.1887 16.6955 8.1887C16.7723 8.1887 16.9547 8.2079 17.0699 8.3039C17.1659 8.3807 17.1947 8.4863 17.2043 8.5631C17.1947 8.6207 17.2139 8.7935 17.2043 8.9279Z" fill="#030013" />
</svg>