<svg width="24" height="24" viewBox="0 0 24 24" fill="none" xmlns="http://www.w3.org/2000/svg">
  <path d="M11.9999 2.3999C6.7007 2.3999 2.3999 6.7007 2.3999 11.9999C2.3999 17.2991 6.7007 21.5999 11.9999 21.5999C17.2991 21.5999 21.5999 17.2991 21.5999 11.9999C21.5999 6.7007 17.2991 2.3999 11.9999 2.3999ZM16.4543 8.9279C16.3103 10.4447 15.6863 14.1311 15.3695 15.8303C15.2351 16.5503 14.9663 16.7903 14.7167 16.8191C14.1599 16.8671 13.7375 16.4543 13.1999 16.0991C12.3551 15.5423 11.8751 15.1967 11.0591 14.6591C10.1087 14.0351 10.7231 13.6895 11.2703 13.1327C11.4143 12.9887 13.8719 10.7519 13.9199 10.5503C13.9266 10.5198 13.9257 10.4881 13.9173 10.458C13.909 10.4278 13.8934 10.4002 13.8719 10.3775C13.8143 10.3295 13.7375 10.3487 13.6703 10.3583C13.5839 10.3775 12.2399 11.2703 9.6191 13.0367C9.2351 13.2959 8.8895 13.4303 8.5823 13.4207C8.2367 13.4111 7.5839 13.2287 7.0943 13.0655C6.4895 12.8735 6.0191 12.7679 6.0575 12.4319C6.0767 12.2591 6.3167 12.0863 6.7679 11.9039C9.5711 10.6847 11.4335 9.8783 12.3647 9.4943C15.0335 8.3807 15.5807 8.1887 15.9455 8.1887C16.0223 8.1887 16.2047 8.2079 16.3199 8.3039C16.4159 8.3807 16.4447 8.4863 16.4543 8.5631C16.4447 8.6207 16.4639 8.7935 16.4543 8.9279Z" fill="white" />
</svg>