<svg width="60" height="60" viewBox="0 0 60 60" fill="none" xmlns="http://www.w3.org/2000/svg">
<path d="M33.5791 0.93457C33.3497 0.935575 33.1286 1.02065 32.9577 1.17369C32.7868 1.32674 32.678 1.53713 32.6518 1.76503L32.2158 5.44675C31.3013 5.72797 30.4234 6.09723 29.579 6.54711L26.624 4.2149C26.4445 4.07353 26.2196 4.00255 25.9915 4.0153C25.7634 4.02804 25.5478 4.12363 25.3852 4.2841L21.2883 8.38105C21.1284 8.54024 21.0313 8.75174 21.0148 8.97673C20.9982 9.20173 21.0634 9.42514 21.1983 9.60598L23.4682 12.6302C23.0189 13.4586 22.6542 14.3276 22.3679 15.2254L18.7692 15.6476C18.5401 15.6739 18.3288 15.7838 18.1755 15.9561C18.0223 16.1285 17.938 16.3513 17.9387 16.5819V22.3743C17.9388 22.5996 18.02 22.8172 18.1674 22.9875C18.3148 23.1578 18.5186 23.2693 18.7415 23.3017L22.2779 23.8069C22.5579 24.7783 22.9298 25.7142 23.399 26.6097L21.2121 29.3779C21.0697 29.5587 20.9988 29.7856 21.0128 30.0153C21.0269 30.245 21.1249 30.4615 21.2883 30.6236L25.3852 34.7206C25.5453 34.8794 25.7572 34.9752 25.9822 34.9905C26.2072 35.0057 26.4301 34.9394 26.6101 34.8036L29.406 32.7136C30.3105 33.2124 31.2629 33.608 32.2504 33.9109L32.6518 37.3573C32.678 37.5852 32.7868 37.7956 32.9577 37.9486C33.1286 38.1017 33.3497 38.1867 33.5791 38.1877H39.3785C39.6048 38.1874 39.8232 38.1052 39.9937 37.9564C40.1641 37.8076 40.275 37.6022 40.3059 37.378L40.7903 33.9662C41.7979 33.6716 42.7658 33.2739 43.69 32.7759L46.4028 34.8036C46.5829 34.9394 46.8058 35.0057 47.0308 34.9905C47.2558 34.9752 47.4677 34.8794 47.6278 34.7206L51.7178 30.6236C51.8811 30.4615 51.9792 30.245 51.9932 30.0153C52.0073 29.7856 51.9363 29.5587 51.7939 29.3779L49.697 26.7274C50.1913 25.7937 50.5858 24.8164 50.8735 23.8L54.3822 23.3017C54.6051 23.2693 54.8088 23.1578 54.9563 22.9875C55.1037 22.8172 55.1848 22.5996 55.185 22.3743V16.5819C55.1859 16.3523 55.1025 16.1304 54.9507 15.9582C54.7989 15.786 54.5893 15.6755 54.3614 15.6476L50.7904 15.2324C50.4941 14.2886 50.1106 13.3798 49.6347 12.5126L51.8078 9.60598C51.9426 9.42514 52.0078 9.20173 51.9913 8.97674C51.9747 8.75174 51.8776 8.54024 51.7178 8.38105L47.6278 4.2841C47.4648 4.12175 47.2478 4.02499 47.0181 4.01223C46.7884 3.99947 46.562 4.0716 46.3821 4.2149L43.4754 6.50559C42.6288 6.0616 41.7404 5.70114 40.8249 5.42599L40.3059 1.74427C40.275 1.52013 40.1641 1.31471 39.9937 1.1659C39.8233 1.01709 39.6048 0.934927 39.3785 0.93457H33.5791ZM34.4165 2.81003H38.5619L39.0463 6.21493C39.0729 6.39885 39.1535 6.57072 39.278 6.70873C39.4024 6.84673 39.5651 6.94464 39.7453 6.99003C40.9441 7.29222 42.0967 7.76398 43.164 8.38797C43.3268 8.48226 43.5141 8.52541 43.7017 8.51184C43.8893 8.49826 44.0685 8.42858 44.2159 8.31185L46.8873 6.20109L49.8216 9.13539L47.8146 11.8067C47.7021 11.957 47.6374 12.1377 47.6288 12.3252C47.6201 12.5128 47.668 12.6986 47.7662 12.8586C48.427 13.9417 48.9231 15.113 49.2472 16.3397C49.2956 16.5225 49.3981 16.6865 49.5414 16.81C49.6847 16.9335 49.8619 17.0108 50.0499 17.0317L53.3095 17.4123V21.5577L50.0845 22.0214C49.8976 22.0477 49.7229 22.1298 49.5834 22.2569C49.4438 22.3841 49.346 22.5505 49.3025 22.7342C48.9999 24.0277 48.5034 25.2717 47.8285 26.4159C47.7317 26.5788 47.6865 26.7671 47.6989 26.9561C47.7112 27.1451 47.7805 27.3259 47.8977 27.4748L49.8077 29.89L46.8734 32.8174L44.4028 30.9627C44.2538 30.8507 44.0749 30.7855 43.8887 30.7757C43.7026 30.7658 43.5178 30.8117 43.3578 30.9073C42.2264 31.5853 40.9991 32.09 39.7176 32.4022C39.5351 32.4468 39.3703 32.5452 39.2444 32.6847C39.1186 32.8241 39.0375 32.9981 39.0117 33.1842L38.5619 36.3123H34.4165L34.0497 33.1634C34.027 32.9758 33.9481 32.7994 33.8234 32.6573C33.6986 32.5153 33.5339 32.4143 33.3507 32.3676C32.0829 32.0421 30.868 31.5291 29.7521 30.8451C29.592 30.7469 29.4062 30.699 29.2187 30.7077C29.0311 30.7163 28.8505 30.781 28.7001 30.8935L26.1326 32.8174L23.2052 29.89L25.1984 27.3571C25.3151 27.2096 25.3848 27.0305 25.3983 26.8429C25.4119 26.6553 25.3688 26.4679 25.2745 26.3052C24.6245 25.1925 24.1415 23.9875 23.8419 22.7342C23.799 22.5515 23.7021 22.3858 23.5639 22.2587C23.4257 22.1316 23.2525 22.049 23.0668 22.0214L19.8142 21.5577V17.4123L23.1084 17.0248C23.2942 17.0031 23.4694 16.9262 23.6112 16.8041C23.753 16.682 23.8551 16.5202 23.9042 16.3397C24.2224 15.1572 24.7048 14.0251 25.3368 12.9763C25.4334 12.817 25.4805 12.6325 25.4718 12.4464C25.4632 12.2603 25.3993 12.0809 25.2883 11.9313L23.1845 9.13539L26.1188 6.20109L28.8385 8.34645C28.9867 8.46466 29.1671 8.53521 29.3562 8.5488C29.5452 8.56239 29.7339 8.51838 29.8974 8.42257C30.9658 7.78833 32.1198 7.30697 33.323 6.99695C33.5062 6.95021 33.6709 6.8492 33.7957 6.70718C33.9204 6.56515 33.9993 6.38874 34.022 6.20109L34.4165 2.81003Z" fill="url(#paint0_linear_2075_63)"/>
<path d="M36.5614 11.2529C31.9126 11.2529 28.1252 15.0403 28.1252 19.689C28.1252 24.3378 31.9126 28.1252 36.5614 28.1252C41.2102 28.1252 44.9975 24.3378 44.9975 19.689C44.9975 15.0403 41.2102 11.2529 36.5614 11.2529ZM36.5614 13.1284C40.1968 13.1284 43.122 16.0536 43.122 19.689C43.122 23.3245 40.1968 26.2497 36.5614 26.2497C32.9259 26.2497 30.0007 23.3245 30.0007 19.689C30.0007 16.0536 32.9259 13.1284 36.5614 13.1284Z" fill="url(#paint1_linear_2075_63)"/>
<path d="M14.2044 36.803L5.58145 37.502C5.44451 37.513 5.31168 37.554 5.19234 37.6221C5.073 37.6902 4.97007 37.7836 4.89085 37.8959C4.81162 38.0081 4.75803 38.1364 4.73386 38.2716C4.70969 38.4069 4.71554 38.5458 4.75099 38.6785L10.0936 58.6027C10.1549 58.831 10.3002 59.0278 10.5004 59.1535C10.7006 59.2793 10.9409 59.3248 11.1732 59.2809L21.0142 57.4054C21.1471 57.3806 21.2731 57.3274 21.3834 57.2493C21.4938 57.1713 21.586 57.0703 21.6537 56.9533C21.7215 56.8363 21.7631 56.7061 21.7757 56.5715C21.7884 56.4369 21.7717 56.3011 21.727 56.1736L15.1664 37.4259C15.0975 37.2303 14.9657 37.0631 14.7916 36.9504C14.6176 36.8377 14.4111 36.7859 14.2044 36.803ZM13.6369 38.7269L19.5955 55.7652L11.6784 57.2739L6.85483 39.2806L13.6369 38.7269Z" fill="url(#paint2_linear_2075_63)"/>
<path d="M23.5957 36.5403L15.4434 38.7272L15.9278 40.5334L24.0802 38.3535C24.5243 38.2349 24.9913 38.2853 25.402 38.4919L35.4713 43.5438C35.4713 43.5438 36.2535 43.9716 36.4914 44.7344C36.572 45.5504 36.3849 45.9989 35.935 46.2844C35.4711 46.5787 34.5305 46.7564 33.3814 46.7965L23.7134 46.1736C23.1976 46.14 22.7518 46.5299 22.7168 47.0456C22.6832 47.5639 23.0773 48.0108 23.5957 48.0422L33.3329 48.6789C33.363 48.6803 33.3929 48.6803 33.4229 48.6789C34.7099 48.6368 35.9316 48.508 36.9385 47.8692C37.9454 47.2303 38.5487 46.1276 38.3503 44.4366C38.3436 44.3968 38.3343 44.3575 38.3226 44.319C37.892 42.6369 36.3572 41.8898 36.3572 41.8898L26.2463 36.8171C25.4257 36.4043 24.4833 36.3034 23.5957 36.5403Z" fill="url(#paint3_linear_2075_63)"/>
<path d="M37.3743 44.4987L37.8518 46.3119L51.0079 42.8307C51.5711 42.6614 52.2521 42.6008 52.7311 42.7476C53.21 42.8944 53.5524 43.1259 53.7761 43.9933C54.0058 44.8885 53.5825 45.7921 52.7311 46.1733L38.108 52.9971C37.5821 53.2012 37.3743 53.1764 36.5855 53.0939C36.5671 53.091 36.5487 53.0886 36.5301 53.0869L19.3672 52.2772L19.2842 54.1526L36.4402 54.9623L36.3917 54.9552C37.2117 55.041 37.9464 55.0736 38.7862 54.7476C38.805 54.7391 38.8235 54.7299 38.8416 54.72L53.4923 47.8825C55.1599 47.1359 56.0476 45.2885 55.5962 43.5295C55.2417 42.1545 54.2947 41.2647 53.2846 40.9552C52.2746 40.6457 51.2719 40.7899 50.8699 40.9107L37.3743 44.4987Z" fill="url(#paint4_linear_2075_63)"/>
<defs>
<linearGradient id="paint0_linear_2075_63" x1="36.5618" y1="0.93457" x2="36.5618" y2="38.1877" gradientUnits="userSpaceOnUse">
<stop stop-color="white"/>
<stop offset="1" stop-color="white" stop-opacity="0.7"/>
</linearGradient>
<linearGradient id="paint1_linear_2075_63" x1="36.5614" y1="11.2529" x2="36.5614" y2="28.1252" gradientUnits="userSpaceOnUse">
<stop stop-color="white"/>
<stop offset="1" stop-color="white" stop-opacity="0.7"/>
</linearGradient>
<linearGradient id="paint2_linear_2075_63" x1="13.2495" y1="36.7998" x2="13.2495" y2="59.2972" gradientUnits="userSpaceOnUse">
<stop stop-color="white"/>
<stop offset="1" stop-color="white" stop-opacity="0.7"/>
</linearGradient>
<linearGradient id="paint3_linear_2075_63" x1="26.9156" y1="36.4146" x2="26.9156" y2="48.6799" gradientUnits="userSpaceOnUse">
<stop stop-color="white"/>
<stop offset="1" stop-color="white" stop-opacity="0.7"/>
</linearGradient>
<linearGradient id="paint4_linear_2075_63" x1="37.4987" y1="40.7695" x2="37.4987" y2="55.0132" gradientUnits="userSpaceOnUse">
<stop stop-color="white"/>
<stop offset="1" stop-color="white" stop-opacity="0.7"/>
</linearGradient>
</defs>
</svg>
