<svg width="61" height="60" viewBox="0 0 61 60" fill="none" xmlns="http://www.w3.org/2000/svg">
<path d="M33.2675 45.5418C33.0942 45.3861 32.8628 45.3118 32.6312 45.3367C32.0702 45.3975 31.5042 45.4283 30.9487 45.4283C22.4425 45.4283 15.5223 38.508 15.5223 30.0019C15.5223 21.4957 22.4425 14.5755 30.9487 14.5755C31.5042 14.5755 32.0703 14.6064 32.6312 14.6672C32.8627 14.6923 33.0942 14.6179 33.2675 14.4621C33.4408 14.3065 33.54 14.0845 33.54 13.8517V1.28906C33.54 0.836016 33.1727 0.46875 32.7196 0.46875H26.1708C25.779 0.46875 25.4418 0.745898 25.366 1.13039L24.3125 6.47297L19.012 8.67176L14.4864 5.63684C14.1608 5.41863 13.7266 5.46106 13.4494 5.73809L6.68913 12.4984C6.41198 12.7754 6.36956 13.2098 6.58788 13.5354L9.62269 18.0609L7.4239 23.3614L2.08132 24.4148C1.69683 24.4907 1.41968 24.8278 1.41968 25.2197V34.7803C1.41968 35.1722 1.69683 35.5093 2.08132 35.5852L7.4239 36.6386L9.62269 41.9391L6.58788 46.4646C6.36968 46.79 6.4121 47.2245 6.68913 47.5016L13.4494 54.2619C13.7265 54.5389 14.1608 54.5814 14.4864 54.3632L19.012 51.3282L24.3125 53.527L25.366 58.8696C25.4418 59.2541 25.779 59.5313 26.1708 59.5313H32.7196C33.1727 59.5313 33.54 59.164 33.54 58.7109V46.1522C33.54 45.9192 33.4409 45.6973 33.2675 45.5418ZM31.8993 57.8906H26.8453L25.8373 52.7789C25.7842 52.5097 25.6003 52.285 25.3468 52.1798L19.2346 49.6444C18.9809 49.5391 18.6915 49.5679 18.4634 49.7208L14.1329 52.6249L8.32624 46.8183L11.2304 42.4877C11.3833 42.2597 11.412 41.9701 11.3068 41.7165L8.77132 35.6043C8.6662 35.3509 8.44144 35.1668 8.17226 35.1137L3.06054 34.1058V25.8939L8.17226 24.8859C8.44144 24.8329 8.6662 24.6489 8.77132 24.3954L11.3068 18.2831C11.412 18.0294 11.3833 17.74 11.2304 17.5119L8.32624 13.1814L14.1329 7.37473L18.4634 10.2789C18.6915 10.4318 18.981 10.4605 19.2346 10.3553L25.3468 7.8198C25.6001 7.71469 25.7842 7.48992 25.8373 7.22074L26.8453 2.10902H31.8993V12.9615C31.581 12.9438 31.2635 12.9348 30.9487 12.9348C21.5378 12.9348 13.8816 20.591 13.8816 30.0018C13.8816 39.4125 21.5378 47.0688 30.9487 47.0688C31.2635 47.0688 31.581 47.0599 31.8993 47.0421V57.8905V57.8906ZM59.8447 27.9769C59.8899 27.7566 59.9136 27.5285 59.9136 27.2951C59.9136 26.0927 59.2833 25.0354 58.3365 24.4341C58.882 23.8325 59.2148 23.0348 59.2148 22.1607C59.2148 20.293 57.6952 18.7733 55.8274 18.7733H48.6554C49.0427 15.5395 49.5516 9.25547 46.8049 6.46406C45.7384 5.3802 44.3192 4.92949 42.5864 5.12414C41.5699 5.2384 40.8409 6.12621 40.9267 7.14563C41.6403 15.6164 39.6783 18.9779 33.1891 20.1302C32.7903 19.5027 32.0908 19.0842 31.2938 19.0842H27.098C25.8596 19.0842 24.852 20.0918 24.852 21.3304V38.6733C24.852 39.9118 25.8596 40.9194 27.098 40.9194H31.2938C32.2079 40.9194 32.9947 40.3697 33.345 39.5842C33.5921 39.604 33.821 39.6286 34.0367 39.6568C34.0864 39.6634 34.136 39.67 34.1842 39.6769C34.5495 39.7293 34.8761 39.793 35.1835 39.8648C35.6295 39.9691 36.0371 40.0902 36.4672 40.2185C37.1535 40.4232 37.8632 40.6349 38.8337 40.8117C39.963 41.0174 41.1849 41.0948 42.442 41.0948H42.4423C44.5166 41.0948 46.686 40.8837 48.6885 40.6888C49.5283 40.6071 50.3219 40.5299 51.082 40.4699H54.6636C56.3988 40.4699 57.8105 39.0582 57.8105 37.3229C57.8105 36.6425 57.5928 36.0124 57.2242 35.4972C58.3275 34.9794 59.108 33.8844 59.1732 32.6032C59.1761 32.5455 59.1776 32.4875 59.1776 32.4292C59.1776 31.5625 58.85 30.771 58.3126 30.1712C59.0879 29.6878 59.655 28.9005 59.8444 27.9769H59.8447ZM55.7905 34.1761H49.9441C48.9809 34.1761 48.1973 33.3925 48.1973 32.4293C48.1973 31.4661 48.9809 30.6825 49.9441 30.6825H55.7905C56.7536 30.6825 57.5373 31.4661 57.5373 32.4293C57.5373 33.3925 56.7536 34.1761 55.7905 34.1761ZM58.2639 27.4734C58.1743 28.3532 57.4291 29.0419 56.5262 29.0419H49.7391C48.776 29.0419 47.9923 28.2582 47.9923 27.2951C47.9923 26.3319 48.776 25.5483 49.7391 25.5483H56.5262C57.4292 25.5483 58.1743 26.237 58.2639 27.1167C58.2699 27.1753 58.273 27.2348 58.273 27.2951C58.273 27.3553 58.2699 27.4147 58.2639 27.4734ZM55.8274 20.4141C56.7905 20.4141 57.5742 21.1977 57.5742 22.1609C57.5742 23.124 56.7905 23.9077 55.8274 23.9077H50.7352C49.7721 23.9077 48.9884 23.124 48.9884 22.1609C48.9884 21.1977 49.7721 20.4141 50.7352 20.4141H55.8274ZM41.2369 17.123C42.5513 14.8555 42.96 11.736 42.5616 7.00816C42.5511 6.88254 42.6444 6.76887 42.7696 6.75469C43.9932 6.61734 44.9306 6.89859 45.6355 7.61496C48.1163 10.1361 47.2101 17.1757 46.9122 19.489C46.9117 19.4927 46.9119 19.4964 46.9114 19.5001C46.9094 19.5175 46.9084 19.535 46.9074 19.5527C46.9068 19.5641 46.906 19.5755 46.906 19.5868C46.906 19.6025 46.9067 19.6184 46.9075 19.6343C46.9081 19.6473 46.9086 19.6604 46.9099 19.6733C46.9102 19.6765 46.9101 19.6796 46.9105 19.6829C47.4316 24.4499 46.2195 26.8632 42.7269 28.013C42.2966 28.1545 42.0625 28.6184 42.2042 29.0486C42.3178 29.3938 42.6386 29.6126 42.9832 29.6126C43.0682 29.6126 43.1547 29.5992 43.2398 29.5712C44.5829 29.1292 45.6099 28.5232 46.3903 27.8055C46.5216 28.671 46.9822 29.4293 47.6392 29.9501C46.974 30.5689 46.5568 31.4511 46.5568 32.4293C46.5568 33.7781 47.3494 34.9451 48.4933 35.4897C48.1215 36.0063 47.9016 36.6394 47.9016 37.3232C47.9016 37.9672 48.0964 38.5664 48.4298 39.0657C48.0418 39.1035 47.6479 39.1416 47.2497 39.1786C44.4817 39.4358 41.5222 39.6338 39.128 39.1978C38.2462 39.0373 37.5803 38.8386 36.9365 38.6466C36.5455 38.53 36.1611 38.4158 35.7454 38.3126C35.6334 38.2848 35.52 38.2575 35.4025 38.2315C35.3932 38.2294 35.3832 38.2275 35.3737 38.2254C34.9518 38.1328 34.4879 38.0535 33.9494 37.9944C33.8177 37.98 33.6816 37.9666 33.5402 37.9548V21.7334C37.3669 21.037 39.8234 19.5619 41.2373 17.1229L41.2369 17.123ZM31.8992 38.6734C31.8992 39.0073 31.6277 39.2789 31.2938 39.2789H27.098C26.7642 39.2789 26.4926 39.0073 26.4926 38.6734V21.3305C26.4926 20.9966 26.7642 20.725 27.098 20.725H31.2938C31.6277 20.725 31.8992 20.9966 31.8992 21.3305V38.6734ZM54.6637 38.8294H51.0482C50.2177 38.8294 49.5419 38.1537 49.5419 37.323C49.5419 36.4924 50.2176 35.8167 51.0482 35.8167H54.6637C55.4942 35.8167 56.17 36.4924 56.17 37.323C56.17 38.1537 55.4943 38.8294 54.6637 38.8294ZM43.8815 43.5284C39.4695 43.5284 35.88 47.1178 35.88 51.5298C35.88 55.9418 39.4694 59.5314 43.8815 59.5314C48.2936 59.5314 51.883 55.9419 51.883 51.5298C51.883 47.1177 48.2935 43.5284 43.8815 43.5284ZM43.8815 57.8907C40.3741 57.8907 37.5206 55.0372 37.5206 51.5298C37.5206 48.0224 40.3741 45.169 43.8815 45.169C47.3889 45.169 50.2423 48.0225 50.2423 51.5298C50.2423 55.0371 47.3888 57.8907 43.8815 57.8907ZM47.3893 48.7672C47.7097 49.0875 47.7097 49.607 47.3893 49.9273L43.0243 54.2924C42.8695 54.4472 42.6604 54.5326 42.4443 54.5326C42.4087 54.5326 42.373 54.5303 42.3372 54.5256C42.0843 54.4923 41.8613 54.3434 41.7339 54.1225L40.2433 51.5407C40.0168 51.1484 40.1512 50.6467 40.5435 50.4202C40.9358 50.1936 41.4376 50.328 41.6641 50.7204L42.6202 52.3763L46.2292 48.7671C46.5495 48.4468 47.069 48.4468 47.3893 48.7671V48.7672Z" fill="url(#paint0_linear_2075_75)"/>
<defs>
<linearGradient id="paint0_linear_2075_75" x1="30.6666" y1="0.46875" x2="30.6666" y2="59.5314" gradientUnits="userSpaceOnUse">
<stop stop-color="white"/>
<stop offset="1" stop-color="white" stop-opacity="0.7"/>
</linearGradient>
</defs>
</svg>
