<svg width="61" height="60" viewBox="0 0 61 60" fill="none" xmlns="http://www.w3.org/2000/svg">
<path d="M55.2532 19.6142C54.2895 19.4334 53.2932 19.6281 52.4686 20.1586C51.644 20.6891 51.0537 21.5151 50.8188 22.467L48.6044 30.717C48.0241 30.333 47.3481 30.1185 46.6525 30.0977C45.9569 30.0768 45.2693 30.2504 44.6669 30.5989L38.2563 34.3592C36.9888 35.1054 35.9374 36.1688 35.2057 37.4448C34.474 38.7207 34.0873 40.1652 34.0835 41.6361V48.7498H32.2085C31.9599 48.7498 31.7214 48.8486 31.5456 49.0244C31.3698 49.2002 31.271 49.4387 31.271 49.6873V57.1873C31.271 57.436 31.3698 57.6744 31.5456 57.8503C31.7214 58.0261 31.9599 58.1248 32.2085 58.1248H49.0835C49.3321 58.1248 49.5706 58.0261 49.7464 57.8503C49.9222 57.6744 50.021 57.436 50.021 57.1873V49.6873C50.021 49.4387 49.9222 49.2002 49.7464 49.0244C49.5706 48.8486 49.3321 48.7498 49.0835 48.7498H47.2085V47.6623C47.2084 47.2566 47.2961 46.8557 47.4655 46.4871C47.6349 46.1184 47.8821 45.7908 48.1901 45.5267L52.5616 41.7767C53.2797 41.1628 53.7948 40.3456 54.0391 39.433L58.1069 24.253C58.1923 23.9347 58.2349 23.6065 58.2335 23.277C58.2289 22.4182 57.9308 21.5867 57.3887 20.9205C56.8467 20.2543 56.0932 19.7934 55.2532 19.6142ZM48.146 56.2498H33.146V50.6248H48.146V56.2498ZM56.2966 23.7664L52.2279 38.9483C52.0818 39.496 51.7729 39.9864 51.3419 40.3545L46.9704 44.1045C46.4571 44.5445 46.0451 45.0902 45.7626 45.7043C45.48 46.3184 45.3337 46.9864 45.3335 47.6623V48.7498H35.9585V41.6361C35.9609 40.4923 36.2611 39.3688 36.8295 38.3763C37.3979 37.3837 38.215 36.5563 39.2004 35.9755L45.6035 32.2189C45.8888 32.055 46.212 31.9687 46.541 31.9686C46.889 31.9655 47.2308 32.0606 47.5271 32.243C47.8235 32.4254 48.0623 32.6878 48.2163 32.9998C48.4213 33.453 48.4472 33.967 48.2888 34.4385C48.1304 34.91 47.7993 35.304 47.3622 35.5414L42.1122 38.5667C42.0055 38.6283 41.9119 38.7103 41.8369 38.808C41.7618 38.9057 41.7067 39.0172 41.6748 39.1362C41.6428 39.2552 41.6346 39.3794 41.6507 39.5016C41.6667 39.6237 41.7066 39.7415 41.7682 39.8483C41.8297 39.955 41.9117 40.0486 42.0094 40.1236C42.1072 40.1987 42.2187 40.2538 42.3377 40.2857C42.4567 40.3177 42.5808 40.3259 42.703 40.3099C42.8252 40.2938 42.943 40.2539 43.0497 40.1923L48.2997 37.167C49.0862 36.7287 49.693 36.0273 50.0134 35.1859C50.3339 34.3445 50.3475 33.4171 50.0519 32.5667L52.631 22.9573C52.7479 22.4722 53.0429 22.0487 53.4574 21.7709C53.8719 21.4931 54.3757 21.3811 54.8688 21.4573C55.287 21.5464 55.6625 21.7752 55.9333 22.1062C56.204 22.4371 56.354 22.8504 56.3585 23.278C56.3597 23.4428 56.3389 23.6071 56.2966 23.7664Z" fill="url(#paint0_linear_2075_37)"/>
<path d="M28.4585 48.7497H26.5835V41.636C26.5804 40.1654 26.1944 38.721 25.4635 37.4449C24.7327 36.1688 23.6822 35.105 22.4154 34.3581L15.9972 30.5931C15.3944 30.2456 14.7067 30.0729 14.0112 30.0944C13.3157 30.1159 12.6399 30.3309 12.0597 30.715L9.8463 22.465C9.61019 21.5134 9.01936 20.688 8.19469 20.1577C7.37001 19.6273 6.37386 19.4322 5.41005 19.6122C4.91167 19.7175 4.43991 19.9231 4.02348 20.2164C3.60704 20.5097 3.25464 20.8847 2.98769 21.3186C2.72075 21.7524 2.54484 22.236 2.47068 22.74C2.39652 23.2439 2.42565 23.7577 2.5563 24.25L6.62505 39.4319C6.86858 40.3446 7.38348 41.1619 8.10161 41.7756L12.4732 45.5256C12.7819 45.7895 13.0299 46.1171 13.2 46.4859C13.3701 46.8548 13.4583 47.2561 13.4585 47.6622V48.7497H11.5835C11.3348 48.7497 11.0964 48.8485 10.9206 49.0243C10.7448 49.2001 10.646 49.4386 10.646 49.6872V57.1872C10.646 57.4359 10.7448 57.6743 10.9206 57.8501C11.0964 58.0259 11.3348 58.1247 11.5835 58.1247H28.4585C28.7071 58.1247 28.9456 58.0259 29.1214 57.8501C29.2972 57.6743 29.396 57.4359 29.396 57.1872V49.6872C29.396 49.4386 29.2972 49.2001 29.1214 49.0243C28.9456 48.8485 28.7071 48.7497 28.4585 48.7497ZM13.6966 44.1025L9.32505 40.3525C8.89378 39.9846 8.58476 39.4941 8.43911 38.9463L4.37036 23.7653C4.32812 23.6063 4.30731 23.4424 4.30849 23.2778C4.31115 22.8485 4.46053 22.4331 4.73184 22.1004C5.00315 21.7677 5.38007 21.5377 5.80005 21.4488C6.29312 21.3732 6.79659 21.4854 7.21094 21.7632C7.6253 22.0409 7.92038 22.464 8.03786 22.9488L10.6169 32.5572C10.3211 33.4078 10.3346 34.3354 10.6551 35.1769C10.9755 36.0185 11.5825 36.7201 12.3691 37.1585L17.6191 40.1838C17.8347 40.3081 18.0908 40.3417 18.3312 40.2772C18.5715 40.2126 18.7764 40.0553 18.9007 39.8397C19.025 39.6241 19.0586 39.368 18.9941 39.1277C18.9295 38.8873 18.7722 38.6825 18.5566 38.5581L13.3066 35.5328C12.8694 35.2956 12.5381 34.9016 12.3795 34.4301C12.2209 33.9586 12.2467 33.4446 12.4516 32.9913C12.6068 32.6814 12.8458 32.4213 13.1415 32.2405C13.4371 32.0597 13.7776 31.9654 14.1241 31.9685C14.4508 31.9677 14.7721 32.0524 15.056 32.2141L21.4666 35.9763C22.452 36.5568 23.2692 37.3841 23.8376 38.3765C24.4061 39.3689 24.7062 40.4923 24.7085 41.636V48.7497H15.3335V47.6622C15.3336 46.9859 15.1873 46.3176 14.9048 45.7031C14.6223 45.0887 14.2101 44.5427 13.6966 44.1025ZM27.521 56.2497H12.521V50.6247H27.521V56.2497Z" fill="url(#paint1_linear_2075_37)"/>
<path d="M45.3335 14.6249V2.8124C45.3338 2.64768 45.2908 2.48578 45.2086 2.343C45.1265 2.20022 45.0081 2.08161 44.8656 1.99911C44.723 1.91661 44.5612 1.87313 44.3965 1.87305C44.2318 1.87297 44.0699 1.91629 43.9273 1.99865L42.5913 2.76177C41.1182 3.60567 39.4592 4.07204 37.7621 4.11931C36.065 4.16658 34.3826 3.79329 32.8648 3.03271L30.7451 1.97334C30.6149 1.90831 30.4715 1.87446 30.326 1.87446C30.1805 1.87446 30.0371 1.90831 29.9069 1.97334L27.8023 3.02896C26.2842 3.79087 24.6012 4.16512 22.9034 4.11834C21.2055 4.07155 19.5457 3.60518 18.0719 2.76084L16.7398 1.99865C16.5971 1.91629 16.4353 1.87297 16.2705 1.87305C16.1058 1.87313 15.944 1.91661 15.8015 1.99911C15.6589 2.08161 15.5406 2.20022 15.4584 2.343C15.3763 2.48578 15.3332 2.64768 15.3335 2.8124V14.6249C15.329 18.8737 16.4815 23.0436 18.6675 26.687C20.8534 30.3303 23.9903 33.3097 27.7413 35.3052L29.8919 36.4518C30.0278 36.5243 30.1795 36.5623 30.3335 36.5623C30.4875 36.5623 30.6392 36.5243 30.7751 36.4518L32.9257 35.3052C36.6769 33.3098 39.8138 30.3305 41.9998 26.6871C44.1858 23.0437 45.3383 18.8738 45.3335 14.6249ZM30.3335 34.5627L28.6244 33.6505C25.1733 31.8148 22.2873 29.0739 20.2761 25.722C18.2648 22.3702 17.2044 18.5339 17.2085 14.6249V4.42771C18.9447 5.40795 20.8952 5.94629 22.8884 5.99533C24.8816 6.04437 26.8562 5.60262 28.6385 4.70896L30.326 3.86521L32.0266 4.71459C33.8096 5.6078 35.7848 6.04881 37.7784 5.99879C39.7719 5.94876 41.7226 5.40922 43.4585 4.42771V14.6249C43.4628 18.5339 42.4025 22.3703 40.3912 25.7222C38.38 29.0741 35.4938 31.815 32.0426 33.6505L30.3335 34.5627Z" fill="url(#paint2_linear_2075_37)"/>
<path d="M41.5835 8.46919C41.5836 8.32924 41.5523 8.19106 41.492 8.06476C41.4317 7.93847 41.3439 7.82728 41.235 7.73936C41.1262 7.65143 40.999 7.58899 40.8628 7.55663C40.7267 7.52426 40.585 7.52279 40.4482 7.55232C37.3198 8.21921 34.0578 7.80852 31.1923 6.387L30.7498 6.16669C30.6189 6.10075 30.4744 6.06641 30.3279 6.06641C30.1814 6.06641 30.0369 6.10075 29.906 6.16669L29.4729 6.38325C26.607 7.80672 23.3438 8.21843 20.2141 7.55138C20.0777 7.52265 19.9365 7.52473 19.8009 7.55747C19.6654 7.5902 19.5388 7.65277 19.4305 7.74061C19.3222 7.82845 19.2348 7.93935 19.1748 8.06523C19.1148 8.19111 19.0836 8.3288 19.0835 8.46825V14.6248C19.0795 18.1939 20.0477 21.6966 21.884 24.757C23.7203 27.8174 26.3555 30.3199 29.5066 31.9958L29.8919 32.202C30.0277 32.2744 30.1792 32.3123 30.333 32.3123C30.4869 32.3123 30.6384 32.2744 30.7741 32.202L31.1604 31.9958C34.3115 30.3199 36.9467 27.8174 38.783 24.757C40.6194 21.6966 41.5875 18.1939 41.5835 14.6248V8.46919ZM39.7085 14.6248C39.712 17.8433 38.8418 21.0024 37.1908 23.7651C35.5397 26.5278 33.1697 28.7906 30.3335 30.312C27.4973 28.7906 25.1273 26.5278 23.4762 23.7651C21.8252 21.0024 20.955 17.8433 20.9585 14.6248V9.58763C24.1603 10.032 27.4217 9.50039 30.3166 8.06232L30.3335 8.05294L30.356 8.06513C33.2491 9.50261 36.5087 10.0336 39.7085 9.58857V14.6248Z" fill="url(#paint3_linear_2075_37)"/>
<path d="M35.637 13.0582L28.4585 20.2366L25.5317 17.3097C25.3548 17.139 25.118 17.0445 24.8722 17.0466C24.6264 17.0487 24.3913 17.1473 24.2175 17.3212C24.0436 17.495 23.945 17.7301 23.9429 17.9759C23.9408 18.2217 24.0353 18.4586 24.206 18.6354L27.7957 22.2251C27.9715 22.4008 28.2099 22.4995 28.4585 22.4995C28.7071 22.4995 28.9455 22.4008 29.1214 22.2251L36.9626 14.3838C37.0521 14.2973 37.1236 14.1939 37.1727 14.0795C37.2218 13.9651 37.2477 13.8421 37.2488 13.7176C37.2499 13.5931 37.2261 13.4697 37.179 13.3545C37.1319 13.2393 37.0622 13.1346 36.9742 13.0466C36.8862 12.9585 36.7815 12.8889 36.6663 12.8418C36.5511 12.7946 36.4276 12.7709 36.3032 12.772C36.1787 12.7731 36.0557 12.799 35.9413 12.8481C35.8269 12.8972 35.7235 12.9686 35.637 13.0582Z" fill="url(#paint4_linear_2075_37)"/>
<defs>
<linearGradient id="paint0_linear_2075_37" x1="44.7523" y1="19.5483" x2="44.7523" y2="58.1248" gradientUnits="userSpaceOnUse">
<stop stop-color="white"/>
<stop offset="1" stop-color="white" stop-opacity="0.7"/>
</linearGradient>
<linearGradient id="paint1_linear_2075_37" x1="15.9133" y1="19.5469" x2="15.9133" y2="58.1247" gradientUnits="userSpaceOnUse">
<stop stop-color="white"/>
<stop offset="1" stop-color="white" stop-opacity="0.7"/>
</linearGradient>
<linearGradient id="paint2_linear_2075_37" x1="30.3335" y1="1.87305" x2="30.3335" y2="36.5623" gradientUnits="userSpaceOnUse">
<stop stop-color="white"/>
<stop offset="1" stop-color="white" stop-opacity="0.7"/>
</linearGradient>
<linearGradient id="paint3_linear_2075_37" x1="30.3335" y1="6.06641" x2="30.3335" y2="32.3123" gradientUnits="userSpaceOnUse">
<stop stop-color="white"/>
<stop offset="1" stop-color="white" stop-opacity="0.7"/>
</linearGradient>
<linearGradient id="paint4_linear_2075_37" x1="30.5958" y1="12.772" x2="30.5958" y2="22.4995" gradientUnits="userSpaceOnUse">
<stop stop-color="white"/>
<stop offset="1" stop-color="white" stop-opacity="0.7"/>
</linearGradient>
</defs>
</svg>
