<svg width="60" height="60" viewBox="0 0 60 60" fill="none" xmlns="http://www.w3.org/2000/svg">
<g clip-path="url(#clip0_2075_81)">
<path d="M46.6149 34.2314L48.8455 31.5054C49.5221 30.6786 49.8947 29.6349 49.8947 28.5665V20.3192C49.8947 19.4234 49.6872 18.5241 49.2946 17.7188C48.6991 16.4972 47.7006 15.537 46.5078 14.9668V11.6543C46.5078 9.40906 44.6812 7.58252 42.436 7.58252C41.1419 7.58252 39.9878 8.19016 39.2415 9.13424C38.4951 8.19016 37.341 7.58252 36.0468 7.58252C34.7526 7.58252 33.5985 8.19016 32.8522 9.13424C32.1058 8.19016 30.9517 7.58252 29.6575 7.58252C28.3634 7.58252 27.2093 8.19016 26.4629 9.13424C25.7166 8.19016 24.5625 7.58252 23.2683 7.58252C21.0231 7.58252 19.1965 9.40906 19.1965 11.6543V18.0497C19.1965 18.7741 19.3876 19.4544 19.7206 20.0443V28.0062C19.7206 28.4907 20.1133 28.8833 20.5976 28.8833C21.082 28.8833 21.4747 28.4907 21.4747 28.0062V21.7038C22.0162 21.9707 22.6249 22.1212 23.2682 22.1212C24.5623 22.1212 25.7165 21.5135 26.4628 20.5695C27.2092 21.5135 28.3633 22.1212 29.6575 22.1212C30.9516 22.1212 32.1057 21.5135 32.852 20.5695C33.5984 21.5135 34.7525 22.1212 36.0467 22.1212C36.6726 22.1212 37.281 21.9786 37.835 21.7071C38.358 21.9714 38.9482 22.1212 39.5731 22.1212H40.516L40.3329 24.4336H39.1417C35.4214 24.4336 32.3289 27.3424 32.1013 31.0557L31.9767 33.087C31.947 33.5704 32.3149 33.9864 32.7985 34.0161C32.8167 34.0171 32.835 34.0177 32.853 34.0177C33.3128 34.0177 33.6991 33.6595 33.7276 33.1943L33.8521 31.163C34.0231 28.3732 36.3467 26.1878 39.1417 26.1878H41.1432C41.6008 26.1878 41.9814 25.836 42.0176 25.3799L42.2757 22.1212H42.436C42.9204 22.1212 43.3131 21.7286 43.3131 21.2441C43.3131 20.7596 42.9204 20.367 42.436 20.367H39.5732C38.4076 20.367 37.4593 19.4187 37.4593 18.253C37.4593 17.0873 38.4076 16.139 39.5732 16.139H43.9605C45.5475 16.139 47.0224 17.0609 47.7179 18.4874C47.9945 19.0547 48.1406 19.688 48.1406 20.3191V28.5664C48.1406 29.231 47.9089 29.88 47.4881 30.3943L45.2575 33.1203C44.9507 33.4952 45.006 34.0479 45.3809 34.3546C45.5439 34.4881 45.7404 34.5529 45.9358 34.5529C46.1897 34.553 46.4416 34.4432 46.6149 34.2314ZM23.2682 20.3671C21.9902 20.3671 20.9506 19.3275 20.9506 18.0497V11.6543C20.9506 10.3763 21.9902 9.33667 23.2682 9.33667C24.5461 9.33667 25.5857 10.3764 25.5857 11.6543V18.0497C25.5857 19.3276 24.5461 20.3671 23.2682 20.3671ZM29.6575 20.3671C28.3795 20.3671 27.3399 19.3275 27.3399 18.0497V11.6543C27.3399 10.3763 28.3795 9.33667 29.6575 9.33667C30.9353 9.33667 31.975 10.3764 31.975 11.6543V18.0497C31.975 19.3276 30.9353 20.3671 29.6575 20.3671ZM35.705 18.2533C35.705 19.0253 35.9333 19.7447 36.3246 20.3491C36.2328 20.3601 36.1403 20.3671 36.0467 20.3671C34.7687 20.3671 33.7291 19.3275 33.7291 18.0497V11.6543C33.7291 10.3763 34.7687 9.33667 36.0467 9.33667C37.3247 9.33667 38.3643 10.3764 38.3643 11.6543V14.5795C36.8218 15.0884 35.705 16.5425 35.705 18.2533ZM40.1184 14.385V11.6543C40.1184 10.3763 41.1581 9.33667 42.436 9.33667C43.7139 9.33667 44.7535 10.3764 44.7535 11.6543V14.4397C44.4924 14.404 44.2276 14.3849 43.9604 14.3849L40.1184 14.385Z" fill="url(#paint0_linear_2075_81)"/>
<path d="M44.1205 35.8945C43.7457 35.5879 43.1932 35.6431 42.8863 36.018L41.395 37.8406C41.0809 38.2241 40.908 38.7085 40.908 39.2044V59.1232C40.908 59.6077 41.3007 60.0003 41.785 60.0003C42.2694 60.0003 42.6621 59.6077 42.6621 59.1232V39.2042C42.6621 39.1124 42.6942 39.0226 42.7524 38.9514L44.2439 37.1286C44.5506 36.7538 44.4953 36.2012 44.1205 35.8945Z" fill="url(#paint1_linear_2075_81)"/>
<path d="M23.3111 37.9363C22.144 36.816 21.4746 35.2454 21.4746 33.6276V31.7467C21.4746 31.2622 21.0819 30.8696 20.5975 30.8696C20.1132 30.8696 19.7205 31.2622 19.7205 31.7467V33.6276C19.7205 35.7206 20.5864 37.7523 22.0963 39.2017L22.7177 39.7983C22.8772 39.9515 22.9687 40.1662 22.9687 40.3872V59.0261C22.9687 59.5106 23.3614 59.9032 23.8458 59.9032C24.3301 59.9032 24.7228 59.5106 24.7228 59.0261V40.3872C24.7228 39.6909 24.4348 39.0151 23.9324 38.5328L23.3111 37.9363Z" fill="url(#paint2_linear_2075_81)"/>
<path d="M58.9162 41.6577L53.347 34.401C53.132 34.1208 52.8061 33.96 52.4529 33.96C52.0998 33.96 51.7738 34.1206 51.5589 34.4008L45.9896 41.6578C45.7265 42.0008 45.6819 42.4545 45.873 42.8422C46.0641 43.2298 46.4514 43.4706 46.8836 43.4706H48.5379V59.0441C48.5379 59.5286 48.9306 59.9212 49.415 59.9212C49.8994 59.9212 50.2921 59.5286 50.2921 59.0441V42.5936C50.2921 42.1091 49.8994 41.7165 49.415 41.7165H48.1557L52.4528 36.1172L56.7499 41.7165H55.4909C55.0065 41.7165 54.6138 42.1091 54.6138 42.5936V59.0332C54.6138 59.5177 55.0065 59.9103 55.4909 59.9103C55.9753 59.9103 56.368 59.5177 56.368 59.0332V43.4706H58.0223C58.4545 43.4706 58.8418 43.2297 59.033 42.8422C59.2242 42.4546 59.1794 42.0006 58.9162 41.6577Z" fill="url(#paint3_linear_2075_81)"/>
<path d="M8.4409 34.401C8.22596 34.1208 7.90004 33.96 7.54687 33.96C7.1937 33.96 6.86789 34.1206 6.65295 34.4008L1.08363 41.6578C0.820509 42.0008 0.775837 42.4545 0.967039 42.8422C1.15824 43.2298 1.54556 43.4706 1.97778 43.4706H3.63207V50.6327C3.63207 51.1172 4.02476 51.5098 4.50914 51.5098C4.99352 51.5098 5.38622 51.1172 5.38622 50.6327V42.5936C5.38622 42.1091 4.99352 41.7165 4.50914 41.7165H3.24989L7.54699 36.1172L11.8441 41.7165H10.5848C10.1004 41.7165 9.70775 42.1091 9.70775 42.5936V59.0332C9.70775 59.5177 10.1004 59.9103 10.5848 59.9103C11.0692 59.9103 11.4619 59.5177 11.4619 59.0332V43.4706H13.1161C13.5483 43.4706 13.9356 43.2297 14.1268 42.8421C14.318 42.4545 14.2732 42.0005 14.01 41.6577L8.4409 34.401Z" fill="url(#paint4_linear_2075_81)"/>
<path d="M4.50891 53.4966C4.02453 53.4966 3.63184 53.8892 3.63184 54.3737V59.0443C3.63184 59.5288 4.02453 59.9213 4.50891 59.9213C4.99329 59.9213 5.38599 59.5288 5.38599 59.0443V54.3737C5.38599 53.8893 4.99329 53.4966 4.50891 53.4966Z" fill="url(#paint5_linear_2075_81)"/>
<path d="M11.8606 0.440994C11.6456 0.16068 11.3197 0 10.9665 0C10.6134 0 10.2876 0.16068 10.0726 0.440877L4.50331 7.69769C4.24019 8.04069 4.19551 8.49443 4.38672 8.8821C4.57792 9.26977 4.96524 9.51055 5.39746 9.51055H7.05163V25.084C7.05163 25.5685 7.44432 25.9611 7.9287 25.9611C8.41308 25.9611 8.80578 25.5685 8.80578 25.084V8.63348C8.80578 8.14898 8.41308 7.7564 7.9287 7.7564H6.66957L10.9667 2.15714L15.2638 7.7564H14.0046C13.5202 7.7564 13.1275 8.14898 13.1275 8.63348V25.0732C13.1275 25.5577 13.5202 25.9502 14.0046 25.9502C14.489 25.9502 14.8817 25.5577 14.8817 25.0732V9.51055H16.5357C16.968 9.51055 17.3553 9.26965 17.5465 8.88198C17.7377 8.49443 17.6929 8.04045 17.4297 7.69758L11.8606 0.440994Z" fill="url(#paint6_linear_2075_81)"/>
</g>
<defs>
<linearGradient id="paint0_linear_2075_81" x1="34.5456" y1="7.58252" x2="34.5456" y2="34.5529" gradientUnits="userSpaceOnUse">
<stop stop-color="white"/>
<stop offset="1" stop-color="white" stop-opacity="0.7"/>
</linearGradient>
<linearGradient id="paint1_linear_2075_81" x1="42.6751" y1="35.6963" x2="42.6751" y2="60.0003" gradientUnits="userSpaceOnUse">
<stop stop-color="white"/>
<stop offset="1" stop-color="white" stop-opacity="0.7"/>
</linearGradient>
<linearGradient id="paint2_linear_2075_81" x1="22.2216" y1="30.8696" x2="22.2216" y2="59.9032" gradientUnits="userSpaceOnUse">
<stop stop-color="white"/>
<stop offset="1" stop-color="white" stop-opacity="0.7"/>
</linearGradient>
<linearGradient id="paint3_linear_2075_81" x1="52.453" y1="33.96" x2="52.453" y2="59.9212" gradientUnits="userSpaceOnUse">
<stop stop-color="white"/>
<stop offset="1" stop-color="white" stop-opacity="0.7"/>
</linearGradient>
<linearGradient id="paint4_linear_2075_81" x1="7.5469" y1="33.96" x2="7.5469" y2="59.9103" gradientUnits="userSpaceOnUse">
<stop stop-color="white"/>
<stop offset="1" stop-color="white" stop-opacity="0.7"/>
</linearGradient>
<linearGradient id="paint5_linear_2075_81" x1="4.50891" y1="53.4966" x2="4.50891" y2="59.9213" gradientUnits="userSpaceOnUse">
<stop stop-color="white"/>
<stop offset="1" stop-color="white" stop-opacity="0.7"/>
</linearGradient>
<linearGradient id="paint6_linear_2075_81" x1="10.9666" y1="0" x2="10.9666" y2="25.9611" gradientUnits="userSpaceOnUse">
<stop stop-color="white"/>
<stop offset="1" stop-color="white" stop-opacity="0.7"/>
</linearGradient>
<clipPath id="clip0_2075_81">
<rect width="60" height="60" fill="white"/>
</clipPath>
</defs>
</svg>
