<svg width="61" height="60" viewBox="0 0 61 60" fill="none" xmlns="http://www.w3.org/2000/svg">
<path fill-rule="evenodd" clip-rule="evenodd" d="M22.856 17.5354C23.0406 17.9005 23.1011 18.2444 23.0526 18.6507L22.7941 20.8139C22.5906 22.5175 23.5134 24.116 25.0906 24.7913L26.3763 25.3419L23.1888 32.1884C23.0001 32.5937 23.0518 33.0656 23.3234 33.4202C23.5952 33.7747 24.0377 33.9473 24.4781 33.8703L27.7414 33.3001L29.4059 36.1645C29.6212 36.5349 30.0133 36.7592 30.4386 36.7592C30.4569 36.7592 30.4752 36.7588 30.4936 36.7579C30.9398 36.7377 31.3343 36.4735 31.5231 36.0683L34.6162 29.4245L35.5547 29.1409C35.9463 29.0225 36.2955 29.0225 36.6872 29.1409L37.6257 29.4245L40.7189 36.0682C40.9074 36.4733 41.3018 36.7375 41.748 36.7579C41.7665 36.7588 41.7848 36.7592 41.8032 36.7592C42.2284 36.7592 42.6204 36.5349 42.8359 36.1644L44.5003 33.3001L47.7637 33.8703C48.2042 33.9472 48.6465 33.7748 48.9183 33.4202C49.19 33.0657 49.2417 32.5937 49.0529 32.1883L45.8654 25.3419L47.1509 24.7914C48.7282 24.1159 49.6511 22.5175 49.4475 20.8139L49.189 18.6507C49.1404 18.2444 49.2011 17.9006 49.3856 17.5353L50.3683 15.5912C51.1424 14.0599 50.8218 12.2422 49.5708 11.068L47.9822 9.57688C47.684 9.29703 47.5093 8.99457 47.416 8.59637L46.9191 6.47516C46.5279 4.80453 45.1139 3.61813 43.4008 3.52297L41.2256 3.40191C40.8172 3.37918 40.489 3.25965 40.1614 3.01461L38.4174 1.70914C37.0436 0.680937 35.1979 0.680937 33.8244 1.70914L32.0804 3.01449C31.7527 3.25965 31.4245 3.37906 31.016 3.40191L28.841 3.52297C27.1277 3.61824 25.7137 4.80465 25.3223 6.47527L24.8254 8.59637C24.7322 8.99469 24.5574 9.29715 24.2591 9.57711L22.6707 11.0681C21.4196 12.2423 21.0991 14.0599 21.8731 15.5913L22.856 17.5354ZM30.3726 34.0964L29.0342 31.7932C28.837 31.4538 28.4495 31.2734 28.0623 31.3407L25.4382 31.7993L27.9618 26.3789L29.1531 28.2002C29.8716 29.2992 31.0562 29.9259 32.3088 29.9375L30.3726 34.0964ZM44.179 31.3406C43.7922 31.273 43.4043 31.4536 43.207 31.793L41.8686 34.0963L39.9318 29.9361C41.1846 29.9246 42.3695 29.2991 43.0882 28.2002L44.2795 26.3786L46.8031 31.7991L44.179 31.3406ZM23.9539 12.4352L25.5422 10.9443C26.1105 10.4111 26.4731 9.78313 26.651 9.02398L27.1479 6.90289C27.3508 6.03629 28.0563 5.44449 28.9449 5.39504L31.1199 5.27398C31.8979 5.23074 32.5795 4.98277 33.2035 4.51566L34.9476 3.2102C35.66 2.67688 36.581 2.67688 37.2934 3.2102L39.0375 4.51578C39.6615 4.98266 40.3431 5.23074 41.1209 5.27398L43.2961 5.39504C44.1847 5.44449 44.8902 6.03641 45.093 6.90277L45.5899 9.0241C45.7678 9.78301 46.1304 10.4111 46.6985 10.9442L48.287 12.4352C48.9359 13.0442 49.0958 13.9511 48.6943 14.7453L47.7116 16.6896C47.36 17.3851 47.234 18.0993 47.3265 18.8732L47.585 21.0364C47.6906 21.9201 47.2303 22.7176 46.4121 23.068L44.4095 23.9255C43.6931 24.2323 43.1375 24.6986 42.7109 25.3508L41.5186 27.174C41.0314 27.9188 40.166 28.2338 39.3141 27.9764L37.2288 27.3461C36.8558 27.2334 36.4879 27.1772 36.1202 27.1772C35.7524 27.1772 35.3845 27.2334 35.0115 27.3461L32.9263 27.9764C32.0743 28.2339 31.209 27.9189 30.7218 27.174L29.5299 25.3508C29.1034 24.6986 28.5478 24.2323 27.8313 23.9255L25.8287 23.068C25.0106 22.7176 24.5502 21.9201 24.6557 21.0364L24.9143 18.8732C25.0068 18.0993 24.8809 17.3852 24.5293 16.6896L23.5465 14.7453C23.1451 13.951 23.3049 13.0442 23.9539 12.4352ZM36.1207 24.7182C41.2379 24.7182 45.401 20.555 45.401 15.4378C45.401 10.3205 41.2379 6.15746 36.1207 6.15746C31.0034 6.15746 26.8402 10.3205 26.8402 15.4378C26.8402 20.555 31.0034 24.7182 36.1207 24.7182ZM36.1207 8.03234C40.204 8.03234 43.526 11.3544 43.526 15.4377C43.526 19.5209 40.204 22.8431 36.1207 22.8431C32.0373 22.8431 28.7152 19.5209 28.7152 15.4377C28.7152 11.3544 32.0373 8.03234 36.1207 8.03234ZM35.0277 20.1003C35.5845 20.1003 36.1415 19.8882 36.5655 19.4643C37.6061 18.4237 38.6554 17.3593 39.6702 16.33C40.2797 15.712 40.889 15.0936 41.5 14.4771C42.3423 13.6271 42.3377 12.2496 41.4899 11.4063C41.0797 10.9985 40.5358 10.7741 39.9575 10.7741C39.9546 10.7741 39.9518 10.7741 39.9488 10.7741C39.3682 10.7764 38.8235 11.0046 38.4153 11.4168L35.0216 14.8446L33.8236 13.6464C32.9756 12.7988 31.5958 12.7985 30.7476 13.6466C30.337 14.0573 30.1107 14.6035 30.1107 15.1844C30.1107 15.7655 30.3369 16.3116 30.7476 16.7224L33.4896 19.4642C33.9138 19.8883 34.4707 20.1003 35.0277 20.1003ZM31.9858 15.1845C31.9858 15.1381 31.9972 15.0488 32.0735 14.9724C32.1321 14.9139 32.2088 14.8846 32.2857 14.8846C32.3626 14.8846 32.4393 14.9139 32.4978 14.9723L34.3619 16.8365C34.5378 17.0124 34.7763 17.1112 35.0249 17.1112H35.0272C35.2767 17.1106 35.5155 17.0107 35.6912 16.8334L39.7479 12.7361C39.8188 12.6645 39.9003 12.6493 39.9562 12.6491C40.0018 12.6481 40.0916 12.66 40.1677 12.7357C40.2839 12.8512 40.2841 13.0404 40.1682 13.1573C39.5561 13.7751 38.9455 14.3945 38.3349 15.0138C37.3224 16.0408 36.2756 17.1027 35.2397 18.1385C35.1227 18.2554 34.9324 18.2555 34.8154 18.1385L32.0735 15.3966C31.9972 15.3202 31.9858 15.2309 31.9858 15.1845ZM56.1351 38.2442C55.6288 37.3987 53.5542 34.8864 48.1166 38.0531L38.6674 43.5567C38.2738 43.7859 37.8743 43.9583 37.4612 44.0748C37.5971 43.8218 37.7067 43.5443 37.7872 43.244C38.2838 41.3902 37.1837 39.4554 35.2825 38.8389C35.2424 38.8261 35.2013 38.8157 35.1599 38.8081C32.4524 38.3198 29.7764 37.3523 27.6261 36.5749C26.877 36.3041 26.1696 36.0484 25.5671 35.853C23.1093 35.0556 20.8988 36.0371 19.0604 37.1022L12.1182 41.1243L11.6592 40.3134C11.0268 39.196 9.60325 38.8015 8.48551 39.4338L5.83426 40.9343C4.71688 41.5667 4.32231 42.9904 4.95465 44.1079L12.7491 57.8803C13.0548 58.4202 13.5538 58.8093 14.1543 58.9757C14.362 59.0333 14.5728 59.0618 14.7824 59.0618C15.1786 59.0618 15.5696 58.9598 15.9228 58.7599L18.5741 57.2593C19.1141 56.9538 19.5031 56.4548 19.6697 55.8543C19.8362 55.2539 19.7594 54.6259 19.4538 54.0857L18.5427 52.4759L20.0246 51.6204L32.0874 54.8526C32.7638 55.0339 33.4368 55.1239 34.0988 55.1239C35.4378 55.1239 36.7312 54.7552 37.9138 54.0274L55.0618 43.4683C56.6686 42.4791 57.1802 39.9891 56.1351 38.2442ZM17.8627 55.3536C17.8438 55.4218 17.7911 55.5481 17.6505 55.6277L14.9993 57.1283C14.8588 57.2077 14.7233 57.1879 14.655 57.1691C14.5866 57.1501 14.4603 57.0975 14.3809 56.9568L6.58649 43.1844C6.46532 42.9704 6.54395 42.6872 6.75794 42.566L9.40907 41.0656C9.48723 41.0213 9.56387 41.0079 9.62821 41.0079C9.67954 41.0079 9.72313 41.0164 9.75337 41.0248C9.82169 41.0438 9.94801 41.0965 10.0275 41.2371L17.822 55.0094C17.9014 55.1499 17.8816 55.2853 17.8627 55.3536ZM54.0786 41.8718L36.9307 52.4308C35.5949 53.2531 34.1287 53.4587 32.5727 53.0416L20.1347 49.7089C19.8945 49.6445 19.6386 49.6781 19.4233 49.8027L17.6191 50.8443L13.0416 42.7563L20.0001 38.7247C21.5554 37.8236 23.2363 37.068 24.9884 37.6367C25.5614 37.8225 26.2227 38.0615 26.9885 38.3383C29.1873 39.1332 31.9196 40.1211 34.7584 40.6409C35.6918 40.9707 36.2136 41.8715 35.9759 42.7588C35.6677 43.9092 34.6837 44.0506 33.898 43.9619C32.4325 43.6665 31.0998 43.2886 29.7057 42.8932C29.0778 42.715 28.4286 42.5309 27.7454 42.3479C27.2456 42.2142 26.7313 42.5108 26.5972 43.0108C26.4631 43.511 26.76 44.025 27.2601 44.159C27.9301 44.3384 28.5726 44.5208 29.194 44.697C30.6354 45.1058 32.0131 45.4966 33.5534 45.8054C33.5594 45.8067 33.5654 45.8079 33.5714 45.809C33.9621 45.8871 34.3632 45.9598 34.7788 46.0263C36.5599 46.3114 38.1405 46.0333 39.611 45.1769L49.0603 39.6733C51.7274 38.12 53.7709 37.946 54.5266 39.2076C55.0442 40.072 54.8182 41.4165 54.0786 41.8718ZM9.97379 43.3641C10.0494 43.8814 9.69137 44.3621 9.17411 44.4377C8.65684 44.5134 8.17614 44.1553 8.10055 43.638C8.02485 43.1207 8.38297 42.64 8.90024 42.5645C9.41751 42.4888 9.89821 42.8468 9.97379 43.3641Z" fill="url(#paint0_linear_2075_97)"/>
<defs>
<linearGradient id="paint0_linear_2075_97" x1="30.6667" y1="0.937988" x2="30.6667" y2="59.0618" gradientUnits="userSpaceOnUse">
<stop stop-color="white"/>
<stop offset="1" stop-color="white" stop-opacity="0.7"/>
</linearGradient>
</defs>
</svg>
