<svg width="61" height="60" viewBox="0 0 61 60" fill="none" xmlns="http://www.w3.org/2000/svg">
<path d="M54.4694 41.6251C53.5169 39.6141 51.1084 38.7507 49.0965 39.7041L35.3931 46.1907C35.3584 46.1007 35.32 46.0116 35.2787 45.9235C34.8437 45.0048 34.0759 44.3091 33.1187 43.9679L24.7984 40.9932C24.7337 40.9707 24.6709 40.9435 24.6119 40.9154L18.5387 37.9895C16.4884 37.0023 14.1334 36.9938 12.0775 37.9679L2.7456 42.3845C2.27685 42.6057 2.0781 43.1654 2.29935 43.6332L7.23435 54.0591C7.34029 54.2841 7.53154 54.4576 7.76592 54.541C7.99935 54.6245 8.25717 54.6113 8.48217 54.5054L11.9584 52.861L29.8684 56.8013C30.1525 56.8641 30.4422 56.8951 30.7309 56.8951C31.3262 56.8951 31.9206 56.7638 32.4615 56.5079L52.5494 46.9998C54.5603 46.0482 55.4219 43.6379 54.4703 41.627L54.4694 41.6251ZM51.7469 45.3038L31.659 54.812C31.2297 55.0154 30.7356 55.0707 30.2706 54.9685L12.0475 50.9588C11.9809 50.9438 11.9134 50.9373 11.8459 50.9373C11.7081 50.9373 11.5712 50.9673 11.4447 51.0273L8.52717 52.4082L4.39467 43.6773L12.879 39.661C14.4212 38.9316 16.1875 38.9373 17.724 39.6779L23.8 42.6057C23.92 42.6638 24.0437 42.7154 24.1684 42.7595L32.4878 45.7341C32.9744 45.9076 33.3634 46.2601 33.5837 46.727C33.7047 46.9829 33.7675 47.2566 33.7703 47.5323V47.5745C33.7675 47.7863 33.73 47.9982 33.6559 48.2035C33.4825 48.6901 33.13 49.0791 32.6631 49.2995C32.1962 49.5198 31.6731 49.546 31.1856 49.3726L23.5769 46.6529C23.0922 46.4776 22.5531 46.7316 22.3787 47.2201C22.2044 47.7076 22.4584 48.2438 22.9459 48.4182L30.5547 51.1379C31.5137 51.481 32.5478 51.4295 33.4647 50.9945C34.3834 50.5595 35.079 49.7916 35.4203 48.8345C35.4981 48.616 35.5562 48.3938 35.5937 48.1698L49.8972 41.3991C50.9734 40.892 52.2634 41.3513 52.7734 42.4276C53.2825 43.5038 52.8212 44.7948 51.745 45.3038H51.7469Z" fill="url(#paint0_linear_2075_150)"/>
<path d="M57.5211 3.35889H7.47168C6.95418 3.35889 6.53418 3.77889 6.53418 4.29639V32.6248C6.53418 33.1423 6.95418 33.5623 7.47168 33.5623H57.5211C58.0386 33.5623 58.4586 33.1423 58.4586 32.6248V4.29639C58.4586 3.77889 58.0386 3.35889 57.5211 3.35889ZM56.5836 31.6873H8.40918V5.23389H56.5836V31.6873Z" fill="url(#paint1_linear_2075_150)"/>
<path d="M11.4082 25.0109C13.437 25.0109 15.087 26.6609 15.087 28.6896C15.087 29.2071 15.507 29.6271 16.0245 29.6271H48.9682C49.4857 29.6271 49.9057 29.2071 49.9057 28.6896C49.9057 26.6609 51.5557 25.0109 53.5845 25.0109C54.102 25.0109 54.522 24.5909 54.522 24.0734V12.8487C54.522 12.3312 54.102 11.9112 53.5845 11.9112C51.5557 11.9112 49.9057 10.2612 49.9057 8.23242C49.9057 7.71492 49.4857 7.29492 48.9682 7.29492H16.0245C15.507 7.29492 15.087 7.71492 15.087 8.23242C15.087 10.2612 13.437 11.9112 11.4082 11.9112C10.8907 11.9112 10.4707 12.3312 10.4707 12.8487V24.0734C10.4707 24.5909 10.8907 25.0109 11.4082 25.0109ZM12.3457 13.7065C14.6585 13.3118 16.4876 11.4818 16.8823 9.16992H48.1104C48.5051 11.4827 50.3351 13.3118 52.647 13.7065V23.2146C50.3341 23.6093 48.5051 25.4393 48.1104 27.7512H16.8823C16.4876 25.4384 14.6576 23.6093 12.3457 23.2146V13.7074V13.7065Z" fill="url(#paint2_linear_2075_150)"/>
<path d="M32.4964 25.503C36.3795 25.503 39.538 22.3437 39.538 18.4615C39.538 14.5793 36.3786 11.4199 32.4964 11.4199C28.6142 11.4199 25.4548 14.5793 25.4548 18.4615C25.4548 22.3437 28.6142 25.503 32.4964 25.503ZM32.4964 13.2949C35.3455 13.2949 37.663 15.6124 37.663 18.4615C37.663 21.3105 35.3455 23.628 32.4964 23.628C29.6473 23.628 27.3298 21.3105 27.3298 18.4615C27.3298 15.6124 29.6473 13.2949 32.4964 13.2949Z" fill="url(#paint3_linear_2075_150)"/>
<path d="M45.04 20.6389C45.5575 20.6389 45.9775 20.2189 45.9775 19.7014V17.0107C45.9775 16.4932 45.5575 16.0732 45.04 16.0732C44.5225 16.0732 44.1025 16.4932 44.1025 17.0107V19.7014C44.1025 20.2189 44.5225 20.6389 45.04 20.6389Z" fill="url(#paint4_linear_2075_150)"/>
<path d="M19.9526 20.8488C20.4701 20.8488 20.8901 20.4288 20.8901 19.9113V17.2207C20.8901 16.7032 20.4701 16.2832 19.9526 16.2832C19.4351 16.2832 19.0151 16.7032 19.0151 17.2207V19.9113C19.0151 20.4288 19.4351 20.8488 19.9526 20.8488Z" fill="url(#paint5_linear_2075_150)"/>
<defs>
<linearGradient id="paint0_linear_2075_150" x1="28.5334" y1="37.2432" x2="28.5334" y2="56.8951" gradientUnits="userSpaceOnUse">
<stop stop-color="white"/>
<stop offset="1" stop-color="white" stop-opacity="0.7"/>
</linearGradient>
<linearGradient id="paint1_linear_2075_150" x1="32.4964" y1="3.35889" x2="32.4964" y2="33.5623" gradientUnits="userSpaceOnUse">
<stop stop-color="white"/>
<stop offset="1" stop-color="white" stop-opacity="0.7"/>
</linearGradient>
<linearGradient id="paint2_linear_2075_150" x1="32.4963" y1="7.29492" x2="32.4963" y2="29.6271" gradientUnits="userSpaceOnUse">
<stop stop-color="white"/>
<stop offset="1" stop-color="white" stop-opacity="0.7"/>
</linearGradient>
<linearGradient id="paint3_linear_2075_150" x1="32.4964" y1="11.4199" x2="32.4964" y2="25.503" gradientUnits="userSpaceOnUse">
<stop stop-color="white"/>
<stop offset="1" stop-color="white" stop-opacity="0.7"/>
</linearGradient>
<linearGradient id="paint4_linear_2075_150" x1="45.04" y1="16.0732" x2="45.04" y2="20.6389" gradientUnits="userSpaceOnUse">
<stop stop-color="white"/>
<stop offset="1" stop-color="white" stop-opacity="0.7"/>
</linearGradient>
<linearGradient id="paint5_linear_2075_150" x1="19.9526" y1="16.2832" x2="19.9526" y2="20.8488" gradientUnits="userSpaceOnUse">
<stop stop-color="white"/>
<stop offset="1" stop-color="white" stop-opacity="0.7"/>
</linearGradient>
</defs>
</svg>
