<svg width="16" height="161" viewBox="0 0 16 161" fill="none" xmlns="http://www.w3.org/2000/svg">
<path d="M7.29289 160.707C7.68342 161.098 8.31658 161.098 8.70711 160.707L15.0711 154.343C15.4616 153.953 15.4616 153.319 15.0711 152.929C14.6805 152.538 14.0474 152.538 13.6569 152.929L8 158.586L2.34315 152.929C1.95262 152.538 1.31946 152.538 0.928932 152.929C0.538408 153.319 0.538408 153.953 0.928932 154.343L7.29289 160.707ZM7 4C7 4.55228 7.44772 5 8 5C8.55228 5 9 4.55228 9 4H7ZM9 12C9 11.4477 8.55228 11 8 11C7.44772 11 7 11.4477 7 12H9ZM7 20C7 20.5523 7.44772 21 8 21C8.55228 21 9 20.5523 9 20H7ZM9 28C9 27.4477 8.55228 27 8 27C7.44772 27 7 27.4477 7 28H9ZM7 36C7 36.5523 7.44772 37 8 37C8.55228 37 9 36.5523 9 36H7ZM9 44C9 43.4477 8.55228 43 8 43C7.44772 43 7 43.4477 7 44H9ZM7 52C7 52.5523 7.44772 53 8 53C8.55228 53 9 52.5523 9 52H7ZM9 60C9 59.4477 8.55228 59 8 59C7.44772 59 7 59.4477 7 60H9ZM7 68C7 68.5523 7.44772 69 8 69C8.55228 69 9 68.5523 9 68H7ZM9 76C9 75.4477 8.55228 75 8 75C7.44772 75 7 75.4477 7 76H9ZM7 84C7 84.5523 7.44772 85 8 85C8.55228 85 9 84.5523 9 84H7ZM9 92C9 91.4477 8.55228 91 8 91C7.44772 91 7 91.4477 7 92H9ZM7 100C7 100.552 7.44772 101 8 101C8.55228 101 9 100.552 9 100H7ZM9 108C9 107.448 8.55228 107 8 107C7.44772 107 7 107.448 7 108H9ZM7 116C7 116.552 7.44772 117 8 117C8.55228 117 9 116.552 9 116H7ZM9 124C9 123.448 8.55228 123 8 123C7.44772 123 7 123.448 7 124H9ZM7 132C7 132.552 7.44772 133 8 133C8.55228 133 9 132.552 9 132H7ZM9 140C9 139.448 8.55228 139 8 139C7.44772 139 7 139.448 7 140H9ZM7 148C7 148.552 7.44772 149 8 149C8.55228 149 9 148.552 9 148H7ZM9 156C9 155.448 8.55228 155 8 155C7.44772 155 7 155.448 7 156H9ZM7 0V4H9V0L7 0ZM7 12L7 20H9L9 12H7ZM7 28L7 36H9V28H7ZM7 44V52H9V44H7ZM7 60L7 68H9L9 60H7ZM7 76L7 84H9V76H7ZM7 92V100H9V92H7ZM7 108L7 116H9L9 108H7ZM7 124L7 132H9V124H7ZM7 140L7 148H9V140H7ZM7 156L7 160H9V156H7ZM7.29289 160.707C7.68342 161.098 8.31658 161.098 8.70711 160.707L15.0711 154.343C15.4616 153.953 15.4616 153.319 15.0711 152.929C14.6805 152.538 14.0474 152.538 13.6569 152.929L8 158.586L2.34315 152.929C1.95262 152.538 1.31946 152.538 0.928932 152.929C0.538408 153.319 0.538408 153.953 0.928932 154.343L7.29289 160.707ZM7 4C7 4.55228 7.44772 5 8 5C8.55228 5 9 4.55228 9 4H7ZM9 12C9 11.4477 8.55228 11 8 11C7.44772 11 7 11.4477 7 12H9ZM7 20C7 20.5523 7.44772 21 8 21C8.55228 21 9 20.5523 9 20H7ZM9 28C9 27.4477 8.55228 27 8 27C7.44772 27 7 27.4477 7 28H9ZM7 36C7 36.5523 7.44772 37 8 37C8.55228 37 9 36.5523 9 36H7ZM9 44C9 43.4477 8.55228 43 8 43C7.44772 43 7 43.4477 7 44H9ZM7 52C7 52.5523 7.44772 53 8 53C8.55228 53 9 52.5523 9 52H7ZM9 60C9 59.4477 8.55228 59 8 59C7.44772 59 7 59.4477 7 60H9ZM7 68C7 68.5523 7.44772 69 8 69C8.55228 69 9 68.5523 9 68H7ZM9 76C9 75.4477 8.55228 75 8 75C7.44772 75 7 75.4477 7 76H9ZM7 84C7 84.5523 7.44772 85 8 85C8.55228 85 9 84.5523 9 84H7ZM9 92C9 91.4477 8.55228 91 8 91C7.44772 91 7 91.4477 7 92H9ZM7 100C7 100.552 7.44772 101 8 101C8.55228 101 9 100.552 9 100H7ZM9 108C9 107.448 8.55228 107 8 107C7.44772 107 7 107.448 7 108H9ZM7 116C7 116.552 7.44772 117 8 117C8.55228 117 9 116.552 9 116H7ZM9 124C9 123.448 8.55228 123 8 123C7.44772 123 7 123.448 7 124H9ZM7 132C7 132.552 7.44772 133 8 133C8.55228 133 9 132.552 9 132H7ZM9 140C9 139.448 8.55228 139 8 139C7.44772 139 7 139.448 7 140H9ZM7 148C7 148.552 7.44772 149 8 149C8.55228 149 9 148.552 9 148H7ZM9 156C9 155.448 8.55228 155 8 155C7.44772 155 7 155.448 7 156H9ZM7 0V4H9V0L7 0ZM7 12L7 20H9L9 12H7ZM7 28L7 36H9V28H7ZM7 44V52H9V44H7ZM7 60L7 68H9L9 60H7ZM7 76L7 84H9V76H7ZM7 92V100H9V92H7ZM7 108L7 116H9L9 108H7ZM7 124L7 132H9V124H7ZM7 140L7 148H9V140H7ZM7 156L7 160H9V156H7Z" fill="url(#paint0_linear_102_842)"/>
<defs>
<linearGradient id="paint0_linear_102_842" x1="8" y1="0" x2="6.62193" y2="159.997" gradientUnits="userSpaceOnUse">
<stop offset="0.0001" stop-color="#E59CFF"/>
<stop offset="0.5001" stop-color="#BA9CFF"/>
<stop offset="1" stop-color="#9CB2FF"/>
</linearGradient>
</defs>
</svg>
