<svg width="9" height="62" viewBox="0 0 9 62" fill="none" xmlns="http://www.w3.org/2000/svg">
<path d="M4.14645 61.3379C4.34171 61.5332 4.65829 61.5332 4.85355 61.3379L8.03553 58.156C8.2308 57.9607 8.2308 57.6441 8.03553 57.4488C7.84027 57.2536 7.52369 57.2536 7.32843 57.4488L4.5 60.2773L1.67157 57.4488C1.47631 57.2536 1.15973 57.2536 0.964466 57.4488C0.769204 57.6441 0.769204 57.9607 0.964466 58.156L4.14645 61.3379ZM4 4.73438C4 5.01052 4.22386 5.23438 4.5 5.23438C4.77614 5.23438 5 5.01052 5 4.73438H4ZM5 12.2344C5 11.9582 4.77614 11.7344 4.5 11.7344C4.22386 11.7344 4 11.9582 4 12.2344H5ZM4 19.7344C4 20.0105 4.22386 20.2344 4.5 20.2344C4.77614 20.2344 5 20.0105 5 19.7344H4ZM5 27.2344C5 26.9582 4.77614 26.7344 4.5 26.7344C4.22386 26.7344 4 26.9582 4 27.2344H5ZM4 34.7344C4 35.0105 4.22386 35.2344 4.5 35.2344C4.77614 35.2344 5 35.0105 5 34.7344H4ZM5 42.2344C5 41.9582 4.77614 41.7344 4.5 41.7344C4.22386 41.7344 4 41.9582 4 42.2344H5ZM4 49.7344C4 50.0105 4.22386 50.2344 4.5 50.2344C4.77614 50.2344 5 50.0105 5 49.7344H4ZM5 57.2344C5 56.9582 4.77614 56.7344 4.5 56.7344C4.22386 56.7344 4 56.9582 4 57.2344H5ZM4 0.984375V4.73438H5V0.984375H4ZM4 12.2344L4 19.7344H5L5 12.2344H4ZM4 27.2344L4 34.7344H5L5 27.2344H4ZM4 42.2344L4 49.7344H5L5 42.2344H4ZM4 57.2344L4 60.9844H5V57.2344H4ZM4.14645 61.3379C4.34171 61.5332 4.65829 61.5332 4.85355 61.3379L8.03553 58.156C8.2308 57.9607 8.2308 57.6441 8.03553 57.4488C7.84027 57.2536 7.52369 57.2536 7.32843 57.4488L4.5 60.2773L1.67157 57.4488C1.47631 57.2536 1.15973 57.2536 0.964466 57.4488C0.769204 57.6441 0.769204 57.9607 0.964466 58.156L4.14645 61.3379ZM4 4.73438C4 5.01052 4.22386 5.23438 4.5 5.23438C4.77614 5.23438 5 5.01052 5 4.73438H4ZM5 12.2344C5 11.9582 4.77614 11.7344 4.5 11.7344C4.22386 11.7344 4 11.9582 4 12.2344H5ZM4 19.7344C4 20.0105 4.22386 20.2344 4.5 20.2344C4.77614 20.2344 5 20.0105 5 19.7344H4ZM5 27.2344C5 26.9582 4.77614 26.7344 4.5 26.7344C4.22386 26.7344 4 26.9582 4 27.2344H5ZM4 34.7344C4 35.0105 4.22386 35.2344 4.5 35.2344C4.77614 35.2344 5 35.0105 5 34.7344H4ZM5 42.2344C5 41.9582 4.77614 41.7344 4.5 41.7344C4.22386 41.7344 4 41.9582 4 42.2344H5ZM4 49.7344C4 50.0105 4.22386 50.2344 4.5 50.2344C4.77614 50.2344 5 50.0105 5 49.7344H4ZM5 57.2344C5 56.9582 4.77614 56.7344 4.5 56.7344C4.22386 56.7344 4 56.9582 4 57.2344H5ZM4 0.984375V4.73438H5V0.984375H4ZM4 12.2344L4 19.7344H5L5 12.2344H4ZM4 27.2344L4 34.7344H5L5 27.2344H4ZM4 42.2344L4 49.7344H5L5 42.2344H4ZM4 57.2344L4 60.9844H5V57.2344H4Z" fill="url(#paint0_linear_102_843)"/>
<defs>
<linearGradient id="paint0_linear_102_843" x1="4.5" y1="0.984375" x2="4.3062" y2="60.987" gradientUnits="userSpaceOnUse">
<stop offset="0.0001" stop-color="#E59CFF"/>
<stop offset="0.5001" stop-color="#BA9CFF"/>
<stop offset="1" stop-color="#9CB2FF"/>
</linearGradient>
</defs>
</svg>
